<svg xmlns="http://www.w3.org/2000/svg" width="20" height="20" viewBox="0 0 20 20">
  <g id="_add_a_photo" data-name=" add_a_photo" transform="translate(-0.458 -0.957)">
    <rect id="Path" width="20" height="20" transform="translate(0.458 0.957)" fill="rgba(0,0,0,0)"/>
    <path id="Icon" d="M17,18H4a2.266,2.266,0,0,1-2-2V7a1.91,1.91,0,0,1,.371.416C2.58,7.688,2.816,8,3,8A2.266,2.266,0,0,0,5,6V5H6c.879,0,1-.961,1-2,0-.065.006-.1.017-.1s.028.042.037.083l0,.015H12a4.494,4.494,0,0,0,.566-.065,6.345,6.345,0,0,1,.882-.091A.72.72,0,0,1,14,3l1,1h2a2.265,2.265,0,0,1,2,2V16A2.266,2.266,0,0,1,17,18ZM11,7a4,4,0,1,0,4,4A4,4,0,0,0,11,7Zm-.5,7A2.5,2.5,0,1,1,13,11.5,2.5,2.5,0,0,1,10.5,14ZM3,7A1.133,1.133,0,0,1,2,6V4H1A1.133,1.133,0,0,1,0,3c0-.143.05-.21.158-.21a1.145,1.145,0,0,1,.332.088A1.6,1.6,0,0,0,1,3H2V1A1.151,1.151,0,0,1,3,0,1.133,1.133,0,0,1,4,1V3H6a1.6,1.6,0,0,0,.509-.122,1.147,1.147,0,0,1,.333-.088C6.95,2.79,7,2.857,7,3A1.133,1.133,0,0,1,6,4H4V6A1.134,1.134,0,0,1,3,7Z" transform="translate(0.458 1.958)" fill="#fff"/>
  </g>
</svg>
