<svg xmlns="http://www.w3.org/2000/svg" width="28" height="28" viewBox="0 0 28 28">
  <g id="Bottom_edit" data-name="Bottom edit" transform="translate(-575.814 -2767.814)">
    <rect id="Path" width="28" height="28" transform="translate(575.814 2767.814)" fill="rgba(0,0,0,0)"/>
    <path id="Icon" d="M5.311,27H.751A.743.743,0,0,1,0,26.249V21.69a.739.739,0,0,1,.225-.54L16.589,4.788l5.625,5.625L5.836,26.774A.7.7,0,0,1,5.311,27ZM23.819,8.808h0L18.194,3.183,20.938.439a1.493,1.493,0,0,1,2.115,0l3.51,3.509a1.5,1.5,0,0,1,0,2.114L23.82,8.807Z" transform="translate(576.814 2768.814)" fill="#707070"/>
  </g>
</svg>
