<svg xmlns="http://www.w3.org/2000/svg" width="37" height="37" viewBox="0 0 37 37">
  <g id="Group_1920" data-name="Group 1920" transform="translate(-1025.5 -768.5)">
    <g id="Group_1102" data-name="Group 1102" transform="translate(1012 767.293)">
      <g id="_add_circle_outline" data-name=" add_circle_outline" transform="translate(14 1.707)">
        <rect id="Path" width="36" height="36" transform="translate(0 0)" fill="rgba(0,0,0,0)"/>
        <path id="Icon" d="M18,36A18,18,0,1,1,36,18,18.02,18.02,0,0,1,18,36ZM18,3.6A14.4,14.4,0,1,0,32.4,18,14.418,14.418,0,0,0,18,3.6ZM18,27a1.8,1.8,0,0,1-1.8-1.8V19.8H10.8a1.8,1.8,0,1,1,0-3.6h5.4V10.8a1.8,1.8,0,1,1,3.6,0v5.4h5.4a1.8,1.8,0,1,1,0,3.6H19.8v5.4A1.8,1.8,0,0,1,18,27Z" transform="translate(0 0)" fill="#4d4d4d" stroke="rgba(0,0,0,0)" stroke-width="1"/>
      </g>
    </g>
  </g>
</svg>
