<svg xmlns="http://www.w3.org/2000/svg" width="24" height="24" viewBox="0 0 24 24">
  <g id="_delete" data-name=" delete" transform="translate(-270.374 -242.374)">
    <rect id="Path" width="24" height="24" transform="translate(270.374 242.374)" fill="rgba(0,0,0,0)"/>
    <path id="Icon" d="M9.429,17H2.572A1.81,1.81,0,0,1,.858,15.111V5.667a1.81,1.81,0,0,1,1.714-1.89H9.429a1.81,1.81,0,0,1,1.714,1.89v9.444A1.81,1.81,0,0,1,9.429,17ZM11.143,2.833H.858A.905.905,0,0,1,0,1.889.905.905,0,0,1,.858.944H3L3.609.274A.828.828,0,0,1,4.209,0H7.792a.827.827,0,0,1,.6.274L9,.944h2.143A.9.9,0,0,1,12,1.889.9.9,0,0,1,11.143,2.833Z" transform="translate(276.374 245.374)" fill="#9e9e9e"/>
  </g>
</svg>
