<svg xmlns="http://www.w3.org/2000/svg" width="20" height="26.667" viewBox="0 0 20 26.667">
  <path id="_4_Paper" data-name="4 Paper" d="M17.222,26.667H2.777A2.778,2.778,0,0,1,0,23.889V2.777A2.781,2.781,0,0,1,2.777,0h8.294a2.758,2.758,0,0,1,1.961.811l6.156,6.156A2.758,2.758,0,0,1,20,8.928V23.889A2.781,2.781,0,0,1,17.222,26.667ZM11.111,2.452a.557.557,0,0,0-.556.554v3.66a2.781,2.781,0,0,0,2.778,2.778h3.66a.555.555,0,0,0,.389-.95L11.506,2.616A.552.552,0,0,0,11.111,2.452Z" transform="translate(0 0)" fill="#9fb9c8"/>
</svg>
