<svg xmlns="http://www.w3.org/2000/svg" width="30" height="30" viewBox="0 0 30 30">
  <g id="Group_844" data-name="Group 844" transform="translate(-56 -436)" opacity="1">
    <path id="Path_735" data-name="Path 735" d="M859.431,72.247h-1.682v-7.57a7.594,7.594,0,0,0-7.137-7.863V54.081a.916.916,0,0,0-.949-.876h0a.9.9,0,0,0-.927.876v2.733a7.6,7.6,0,0,0-7.137,7.863v7.57h-1.682a.531.531,0,0,0-.54.509v2.687a.531.531,0,0,0,.54.509h19.5a.522.522,0,0,0,.541-.509V72.756a.513.513,0,0,0-.527-.509Zm-9.851,8.727a3.221,3.221,0,0,0,3.132-3.324h-6.263a3.229,3.229,0,0,0,3.131,3.324Zm-3.026-21.217a.366.366,0,0,1,.189-.008.279.279,0,0,1,.149.1.254.254,0,0,1,.013.178.261.261,0,0,1-.114.141,5.719,5.719,0,0,0-1.607,1.149,4.108,4.108,0,0,0-.9,1.36,4.747,4.747,0,0,0-.369,1.559,9.521,9.521,0,0,0,.04,1.72h0a.221.221,0,0,1-.061.174h0a.271.271,0,0,1-.163.083h0a.317.317,0,0,1-.176-.045v-.012a.191.191,0,0,1-.088-.157h0a8.514,8.514,0,0,1-.04-1.794,5.58,5.58,0,0,1,.391-1.691,4.806,4.806,0,0,1,1-1.5,6.512,6.512,0,0,1,1.739-1.257Zm1.607,1.588a.255.255,0,0,1,.189-.025h0a.3.3,0,0,1,.141.107v.008h0a.245.245,0,0,1,.022.169h0a.209.209,0,0,1-.118.128h0a5.558,5.558,0,0,0-1.349.955,3.7,3.7,0,0,0-.751,1.149,4.214,4.214,0,0,0-.3,1.3,7.246,7.246,0,0,0,.035,1.439h0a.179.179,0,0,1-.057.157.2.2,0,0,1-.154.083.226.226,0,0,1-.176-.045h0a.19.19,0,0,1-.087-.157h0a7.663,7.663,0,0,1-.04-1.521,4.7,4.7,0,0,1,.338-1.422,4.162,4.162,0,0,1,.843-1.277,5.516,5.516,0,0,1,1.471-1.05Zm-.922-.546a.225.225,0,0,1,.18-.012.2.2,0,0,1,.145.107h0a.273.273,0,0,1,.017.165h0a.26.26,0,0,1-.114.141h0a4.863,4.863,0,0,0-1.344.959,3.445,3.445,0,0,0-.751,1.125,3.909,3.909,0,0,0-.3,1.3,7.647,7.647,0,0,0,.022,1.447h0a.216.216,0,0,1-.053.165.279.279,0,0,1-.163.079.3.3,0,0,1-.175-.058h0a.313.313,0,0,1-.088-.141h0a7.438,7.438,0,0,1-.026-1.526,4.588,4.588,0,0,1,.329-1.422,4.083,4.083,0,0,1,.848-1.273,5.508,5.508,0,0,1,1.467-1.054Z" transform="translate(-778.529 383.938)" fill-rule="evenodd"/>
    <rect id="Rectangle_128" data-name="Rectangle 128" width="30" height="30" transform="translate(56 436)" fill="none"/>
  </g>
</svg>
