<svg xmlns="http://www.w3.org/2000/svg" width="27.141" height="29.201" viewBox="0 0 27.141 29.201">
  <defs>
    <style>
      .cls-1 {
        fill: #272525;
      }
    </style>
  </defs>
  <path id="Path_2751" data-name="Path 2751" class="cls-1" d="M14.444,1c-.17,0-.851.34-.851.567s0,1.134.227,1.191.964-.113,1.134,0,.68-.283.624,0-.113,9.013,0,9.41a23.376,23.376,0,0,1-.624,3.515s-1.134,1.871-1.361,2.154A22.107,22.107,0,0,1,11.1,19.311a13.3,13.3,0,0,1-2.268.51,14.94,14.94,0,0,1-2.948-.907c-.227-.113-2.041-1.7-2.041-1.7l-1.3-2.834v-3.8s.17-6.009,0-6.179a1.411,1.411,0,0,1,0-1.077c.113-.057,1.3-.567,1.3-.567l.567-.794s-.4-.623-.567-.964-1.3-.51-1.3-.51H1.519S.612.093.555.49s.227,1.984,0,2.268,0,10.827,0,10.827l.4,2.381,1.587,2.267,1.3,1.587,1.587,1.02,2.154.453s.567-.34.624,0a11.584,11.584,0,0,1,0,1.984A25.67,25.67,0,0,0,9.739,26.34l2.948,2.324,2.891.85s2.947,0,3.4-.34S22.04,27.7,22.04,27.7a23.818,23.818,0,0,0,1.7-2.154c0-.17.906-1.757,1.077-2.267s.227-3.855.34-4.365a25.159,25.159,0,0,0,0-2.948s1.191-.284,1.417-.624,1.02-2.721,1.02-2.721L26.235,10.3a7.444,7.444,0,0,0-1.757-.624c-.454,0-2.154.114-2.437.624s-.85,1.474-1.077,1.871a3.194,3.194,0,0,0,0,1.927,6.707,6.707,0,0,0,1.077,1.247s1.021.4,1.077.624,0,3.855,0,3.855a8.7,8.7,0,0,1,0,2.438c-.227.283-.4,1.814-.681,1.984S21.19,25.6,20.963,25.773a10.429,10.429,0,0,1-1.984,1.36,12.465,12.465,0,0,1-2.324.567l-2.437-.567-1.53-.794L11.1,25.093s-.68-1.587-.737-1.814-.624-1.757-.624-1.757l2.607-.68,2.1-1.02,1.134-1.984,1.53-2.154a21.081,21.081,0,0,0,.454-2.1c0-.34-.283-2.778,0-3s.057-6.009,0-6.179.17-3.4,0-3.4-.681-.4-.907-.51-1.36.51-1.36.51Z" transform="translate(-0.454 -0.314)"/>
</svg>
