<svg xmlns="http://www.w3.org/2000/svg" width="28" height="28" viewBox="0 0 28 28">
  <g id="_forum" data-name=" forum" transform="translate(-814 -1215.537)">
    <rect id="Path" width="28" height="28" transform="translate(814 1215.537)" fill="rgba(0,0,0,0)"/>
    <path id="Icon" d="M24,24l0,0-4.8-4.8H7.2a2.4,2.4,0,0,1-2.4-2.4V15.6H19.2a1.2,1.2,0,0,0,1.2-1.2V4.8h1.2A2.4,2.4,0,0,1,24,7.2V24ZM0,18V2.4A2.4,2.4,0,0,1,2.4,0H15.6A2.4,2.4,0,0,1,18,2.4v8.4a2.4,2.4,0,0,1-2.4,2.4H4.8L0,18Z" transform="translate(816 1217.537)" fill="#1a1a1a"/>
  </g>
</svg>
