<svg xmlns="http://www.w3.org/2000/svg" width="31.006" height="30" viewBox="0 0 31.006 30">
  <g id="Group_13" data-name="Group 13" transform="translate(-478.366 -419.93)">
    <path id="Union_5" data-name="Union 5" d="M-754.3,128.443a.907.907,0,0,1-.148-.522,21.735,21.735,0,0,1,.174-2.521h-8.34a.459.459,0,0,1-.37-.216.905.905,0,0,1-.149-.523c.063-6.249,2.6-9.42,2.712-9.554a.413.413,0,0,1,.669-.014c2.858,3.27,5.927.03,5.958,0a.412.412,0,0,1,.668.04,10.309,10.309,0,0,1,1.576,3.094.408.408,0,0,1,.485.128c2.843,3.254,5.834.13,5.959-.006a.4.4,0,0,1,.522-.087,11.382,11.382,0,0,1,1.629-3.151.413.413,0,0,1,.669-.014c2.857,3.27,5.928.03,5.96,0a.411.411,0,0,1,.666.04c2.64,3.4,2.533,9.311,2.526,9.562-.01.394-.239.706-.518.706l-8.393,0a21.19,21.19,0,0,1,.132,2.551c-.009.392-.239.7-.518.7l-11.495,0A.459.459,0,0,1-754.3,128.443Z" transform="translate(1242 318.132)" stroke="rgba(0,0,0,0)" stroke-miterlimit="10" stroke-width="1"/>
    <path id="Union_6" data-name="Union 6" d="M-749.534,127.08a4.918,4.918,0,0,1-4.851-4.166,4.756,4.756,0,0,1-.36.4,4.876,4.876,0,0,1-3.473,1.442h0a4.921,4.921,0,0,1-4.916-4.912,4.879,4.879,0,0,1,1.441-3.476,4.88,4.88,0,0,1,3.475-1.442,4.918,4.918,0,0,1,4.851,4.164,5.2,5.2,0,0,1,.359-.4,4.889,4.889,0,0,1,3.475-1.442,4.9,4.9,0,0,1,3.911,1.952,4.882,4.882,0,0,1,1.394-2.83,4.878,4.878,0,0,1,3.475-1.442,4.921,4.921,0,0,1,4.914,4.913,4.878,4.878,0,0,1-1.44,3.475,4.876,4.876,0,0,1-3.473,1.442h0a4.909,4.909,0,0,1-3.912-1.951,4.864,4.864,0,0,1-1.394,2.829,4.877,4.877,0,0,1-3.473,1.443Z" transform="translate(1243.351 308)"/>
    <rect id="Rectangle_131" data-name="Rectangle 131" width="30" height="30" transform="translate(478.866 419.93)" fill="none"/>
  </g>
</svg>
