<svg xmlns="http://www.w3.org/2000/svg" width="30" height="31" viewBox="0 0 30 31">
  <g id="Group_842" data-name="Group 842" transform="translate(-58 -193)">
    <rect id="Rectangle_125" data-name="Rectangle 125" width="30" height="30" transform="translate(58 194)" fill="none"/>
    <path id="Path_734" data-name="Path 734" d="M94.955,273.845l-5-4.564v-6.333a.417.417,0,0,0-.435-.4H86.437a.417.417,0,0,0-.435.4v2.723l-4.556-4.16a1.582,1.582,0,0,0-2.094,0L65.827,273.858a1.33,1.33,0,0,0,.875,2.3l2.184.234v13.367a1.422,1.422,0,0,0,1.482,1.354h6.376v-9.7a1.233,1.233,0,0,1,1.285-1.174h4.727a1.233,1.233,0,0,1,1.285,1.174v9.7h6.377a1.422,1.422,0,0,0,1.482-1.354V276.382l2.184-.236A1.329,1.329,0,0,0,94.955,273.845Z" transform="translate(-7.391 -68.114)"/>
  </g>
</svg>
