<svg xmlns="http://www.w3.org/2000/svg" width="30" height="30" viewBox="0 0 30 30">
  <g id="_file_copy" data-name=" file_copy" transform="translate(-474.5 -1482)">
    <rect id="Path" width="30" height="29.999" transform="translate(474.5 1482)" fill="rgba(0,0,0,0)"/>
    <path id="Icon" d="M24.158,30H8.511a2.782,2.782,0,0,1-2.828-2.727L5.7,8.182A2.782,2.782,0,0,1,8.525,5.455h8.769a2.9,2.9,0,0,1,2.018.8l6.863,6.587A2.676,2.676,0,0,1,27,14.769v12.5A2.789,2.789,0,0,1,24.158,30ZM17.052,7.5h0v6.136A1.4,1.4,0,0,0,18.473,15h6.395ZM1.421,21.818A1.4,1.4,0,0,1,0,20.454V2.728A2.79,2.79,0,0,1,2.842,0H18.473a1.4,1.4,0,0,1,1.421,1.365,1.4,1.4,0,0,1-1.421,1.363H4.263A1.4,1.4,0,0,0,2.842,4.092V20.454A1.4,1.4,0,0,1,1.421,21.818Z" transform="translate(476 1481.999)"/>
  </g>
</svg>
