<svg xmlns="http://www.w3.org/2000/svg" width="30" height="30.375" viewBox="0 0 30 30.375">
  <g id="Group_722" data-name="Group 722" transform="translate(-303.591 80.998)">
    <g id="Group_853" data-name="Group 853">
      <g id="Group_721" data-name="Group 721" transform="translate(303.591 -80.623)">
        <g id="Group_373" data-name="Group 373">
          <g id="Path_810" data-name="Path 810" transform="translate(-163.649 -244.777)">
            <path d="M 190.8191833496094 274.2772827148438 L 166.4787445068359 274.2772827148438 C 165.1941223144531 274.2772827148438 164.1490020751953 273.2782592773438 164.1490020751953 272.05029296875 L 164.1490020751953 250.9579010009766 C 164.1490020751953 249.7299346923828 165.1941223144531 248.7309265136719 166.4787445068359 248.7309265136719 L 166.9690399169922 248.7309265136719 L 166.9690399169922 249.9595336914062 C 166.9690399169922 251.3886871337891 168.1671295166016 252.5513916015625 169.6397857666016 252.5513916015625 C 171.1124877929688 252.5513916015625 172.3106079101562 251.3886871337891 172.3106079101562 249.9595336914062 L 172.3106079101562 248.7309265136719 L 184.9873199462891 248.7309265136719 L 184.9873199462891 249.9595336914062 C 184.9873199462891 251.3886871337891 186.1854705810547 252.5513916015625 187.658203125 252.5513916015625 C 189.130859375 252.5513916015625 190.3289337158203 251.3886871337891 190.3289337158203 249.9595336914062 L 190.3289337158203 248.7309265136719 L 190.8191833496094 248.7309265136719 C 192.1038513183594 248.7309265136719 193.1490020751953 249.7299346923828 193.1490020751953 250.9579010009766 L 193.1490020751953 272.05029296875 C 193.1490020751953 273.2782592773438 192.1038513183594 274.2772827148438 190.8191833496094 274.2772827148438 Z M 168.2724914550781 255.3684997558594 C 167.373046875 255.3684997558594 166.6412811279297 256.0361328125 166.6412811279297 256.8567504882812 L 166.6412811279297 270.5187377929688 C 166.6412811279297 271.3374633789062 167.373046875 272.0035400390625 168.2724914550781 272.0035400390625 L 189.0254821777344 272.0035400390625 C 189.9249572753906 272.0035400390625 190.65673828125 271.3374633789062 190.65673828125 270.5187377929688 L 190.65673828125 256.8567504882812 C 190.65673828125 256.0361328125 189.9249572753906 255.3684997558594 189.0254821777344 255.3684997558594 L 168.2724914550781 255.3684997558594 Z" stroke="none"/>
            <path d="M 172.8106079101562 249.2309265136719 L 172.8106079101562 249.9595336914062 C 172.8106079101562 251.6643981933594 171.38818359375 253.0513916015625 169.6397857666016 253.0513916015625 C 167.8914337158203 253.0513916015625 166.4690399169922 251.6643981933594 166.4690399169922 249.9595336914062 L 166.4690399169922 249.23095703125 C 165.464599609375 249.2359313964844 164.6490020751953 250.0087280273438 164.6490020751953 250.9578857421875 L 164.6490020751953 272.05029296875 C 164.6490020751953 273.0025634765625 165.4698181152344 273.7772827148438 166.4787445068359 273.7772827148438 L 190.8191833496094 273.7772827148438 C 191.8281555175781 273.7772827148438 192.6490020751953 273.0025634765625 192.6490020751953 272.05029296875 L 192.6490020751953 250.9578857421875 C 192.6490020751953 250.0087280273438 191.8334197998047 249.2359313964844 190.8289337158203 249.23095703125 L 190.8289337158203 249.9595336914062 C 190.8289337158203 251.6643981933594 189.4065551757812 253.0513916015625 187.658203125 253.0513916015625 C 185.9097747802734 253.0513916015625 184.4873199462891 251.6643981933594 184.4873199462891 249.9595336914062 L 184.4873199462891 249.2309265136719 L 172.8106079101562 249.2309265136719 M 189.0254821777344 272.5035400390625 L 168.2724914550781 272.5035400390625 C 167.0973358154297 272.5035400390625 166.1412811279297 271.6131591796875 166.1412811279297 270.5187377929688 L 166.1412811279297 256.8567504882812 C 166.1412811279297 255.7604370117188 167.0973358154297 254.8684997558594 168.2724914550781 254.8684997558594 L 189.0254821777344 254.8684997558594 C 190.2006683349609 254.8684997558594 191.15673828125 255.7604370117188 191.15673828125 256.8567504882812 L 191.15673828125 270.5187377929688 C 191.15673828125 271.6131591796875 190.2006683349609 272.5035400390625 189.0254821777344 272.5035400390625 M 166.4787445068359 248.2309265136719 L 167.4690399169922 248.2309265136719 L 167.4690399169922 249.9595336914062 C 167.4690399169922 251.1107177734375 168.441650390625 252.0513916015625 169.6397857666016 252.0513916015625 C 170.8344879150391 252.0513916015625 171.8106079101562 251.1107177734375 171.8106079101562 249.9595336914062 L 171.8106079101562 248.2309265136719 L 185.4873199462891 248.2309265136719 L 185.4873199462891 249.9595336914062 C 185.4873199462891 251.1107177734375 186.4635162353516 252.0513916015625 187.658203125 252.0513916015625 C 188.8563385009766 252.0513916015625 189.8289337158203 251.1107177734375 189.8289337158203 249.9595336914062 L 189.8289337158203 248.2309265136719 L 190.8191833496094 248.2309265136719 C 192.38037109375 248.2309265136719 193.6490020751953 249.4534912109375 193.6490020751953 250.9578857421875 L 193.6490020751953 272.05029296875 C 193.6490020751953 273.55810546875 192.38037109375 274.7772827148438 190.8191833496094 274.7772827148438 L 166.4787445068359 274.7772827148438 C 164.9176025390625 274.7772827148438 163.6490020751953 273.55810546875 163.6490020751953 272.05029296875 L 163.6490020751953 250.9578857421875 C 163.6490020751953 249.4534912109375 164.9176025390625 248.2309265136719 166.4787445068359 248.2309265136719 Z M 189.0254821777344 271.5035400390625 C 189.6527862548828 271.5035400390625 190.15673828125 271.0620422363281 190.15673828125 270.5187377929688 L 190.15673828125 256.8567504882812 C 190.15673828125 256.3100280761719 189.6527862548828 255.8684997558594 189.0254821777344 255.8684997558594 L 168.2724914550781 255.8684997558594 C 167.6452331542969 255.8684997558594 167.1412811279297 256.3100280761719 167.1412811279297 256.8567504882812 L 167.1412811279297 270.5187377929688 C 167.1412811279297 271.0620422363281 167.6452331542969 271.5035400390625 168.2724914550781 271.5035400390625 L 189.0254821777344 271.5035400390625 Z" stroke="none"/>
          </g>
          <path id="Path_811" data-name="Path 811" d="M165.054,248.212V252.4a1,1,0,0,0,2,0v-4.184a1,1,0,0,0-2,0Z" transform="translate(-160.089 -247.214)" stroke="#000" stroke-width="0.75"/>
          <path id="Path_812" data-name="Path 812" d="M170.167,248.212V252.4a1,1,0,0,0,2,0v-4.184a1,1,0,0,0-2,0Z" transform="translate(-147.135 -247.214)" stroke="#000" stroke-width="0.75"/>
        </g>
        <rect id="Rectangle_90" data-name="Rectangle 90" width="5.291" height="5.415" rx="1" transform="translate(5.519 12.795)"/>
        <rect id="Rectangle_91" data-name="Rectangle 91" width="5.291" height="5.415" rx="1" transform="translate(12.488 12.795)"/>
        <rect id="Rectangle_92" data-name="Rectangle 92" width="5.291" height="5.415" rx="1" transform="translate(5.519 19.451)"/>
        <rect id="Rectangle_93" data-name="Rectangle 93" width="5.291" height="5.415" rx="1" transform="translate(12.488 19.451)"/>
        <rect id="Rectangle_94" data-name="Rectangle 94" width="5.291" height="5.415" rx="1" transform="translate(19.716 12.795)"/>
        <rect id="Rectangle_95" data-name="Rectangle 95" width="5.291" height="5.415" rx="1" transform="translate(19.716 19.451)"/>
      </g>
      <rect id="Rectangle_132" data-name="Rectangle 132" width="30" height="30" transform="translate(303.591 -80.623)" fill="none"/>
    </g>
  </g>
</svg>
