<svg xmlns="http://www.w3.org/2000/svg" xmlns:xlink="http://www.w3.org/1999/xlink" width="157.497" height="106.664" viewBox="0 0 157.497 106.664">
  <defs>
    <linearGradient id="linear-gradient" x1="0.835" y1="-0.287" x2="0.284" y2="1.228" gradientUnits="objectBoundingBox">
      <stop offset="0" stop-color="#8fbedc"/>
      <stop offset="0.495" stop-color="#7177b2"/>
      <stop offset="1" stop-color="#5c3f91"/>
    </linearGradient>
    <filter id="Exclusion_15" x="0" y="0" width="157.497" height="106.664" filterUnits="userSpaceOnUse">
      <feOffset dx="1" dy="1" input="SourceAlpha"/>
      <feGaussianBlur stdDeviation="0.5" result="blur"/>
      <feFlood flood-opacity="0.361"/>
      <feComposite operator="in" in2="blur"/>
      <feComposite in="SourceGraphic"/>
    </filter>
  </defs>
  <g transform="matrix(1, 0, 0, 1, 0, 0)" filter="url(#Exclusion_15)">
    <path id="Exclusion_15-2" data-name="Exclusion 15" d="M116.842,103.664H34.663a5.581,5.581,0,0,1-1.705-.269A37.287,37.287,0,1,1,74.843,66.385,37.014,37.014,0,0,1,64.471,92.134h47.555a31.4,31.4,0,0,0,22.838-9.771,29.337,29.337,0,0,0,7.992-22.251,29.822,29.822,0,0,0-22.921-27.136,41.21,41.21,0,0,1-12.8,39.363,5.5,5.5,0,0,1-3.689,1.412,5.611,5.611,0,0,1-3.828-1.5,5.716,5.716,0,0,1-1-1.083l-7.5-10.686a5.731,5.731,0,0,1,4.707-9.007,5.761,5.761,0,0,1,4.714,2.447l3.321,4.732A30.067,30.067,0,0,0,69.846,13l4.165,5.936a5.465,5.465,0,0,1-8.969,6.248L57.288,14.137a5.1,5.1,0,0,1-.514-.938l-.028-.034A5.282,5.282,0,0,1,58.4,5.487a41.816,41.816,0,0,1,54.56,11.78c.768,1.062,1.506,2.2,2.192,3.376a41.534,41.534,0,0,1,1.688,82.819v.2ZM37.421,40.634A25.75,25.75,0,1,0,63.27,66.385,25.828,25.828,0,0,0,37.421,40.634Z" transform="translate(0.5 0.5)" fill="url(#linear-gradient)"/>
  </g>
</svg>
