<svg xmlns="http://www.w3.org/2000/svg" width="28" height="28" viewBox="0 0 28 28">
  <g id="_account_balance_wallet" data-name=" account_balance_wallet" transform="translate(-304 -154)" opacity="1">
    <rect id="Path" width="28" height="28" transform="translate(304 154)" fill="rgba(0,0,0,0)"/>
    <path id="Icon" d="M22.737,26H2.842A2.869,2.869,0,0,1,0,23.111V2.89A2.869,2.869,0,0,1,2.842,0h19.9a2.869,2.869,0,0,1,2.842,2.89V4.334H12.789A2.869,2.869,0,0,0,9.948,7.223V18.778a2.869,2.869,0,0,0,2.842,2.889H25.579v1.444A2.869,2.869,0,0,1,22.737,26ZM27,18.778H14.21a1.434,1.434,0,0,1-1.421-1.444V8.667A1.434,1.434,0,0,1,14.21,7.223H27V18.777Zm-8.525-7.944A2.167,2.167,0,1,0,20.605,13,2.152,2.152,0,0,0,18.474,10.834Z" transform="translate(305 155)"/>
  </g>
</svg>
