<svg xmlns="http://www.w3.org/2000/svg" width="17.372" height="19.741" viewBox="0 0 17.372 19.741">
  <path id="Icon" d="M15.544,19.741H5.476a1.809,1.809,0,0,1-1.819-1.794L3.666,5.384A1.809,1.809,0,0,1,5.485,3.59h5.642a1.842,1.842,0,0,1,1.3.529l4.416,4.334a1.78,1.78,0,0,1,.531,1.265v8.228A1.814,1.814,0,0,1,15.544,19.741ZM10.972,4.936h0V8.974a.907.907,0,0,0,.914.9H16ZM.914,14.357A.907.907,0,0,1,0,13.46V1.8A1.814,1.814,0,0,1,1.828,0H11.886A.907.907,0,0,1,12.8.9a.907.907,0,0,1-.914.9H2.743a.907.907,0,0,0-.914.9V13.46A.907.907,0,0,1,.914,14.357Z" fill="#999"/>
</svg>
