<svg xmlns="http://www.w3.org/2000/svg" width="28" height="28" viewBox="0 0 28 28">
  <g id="Group_1949" data-name="Group 1949" transform="translate(-2426 1086)" opacity="1">
    <path id="Path_2725" data-name="Path 2725" d="M0,0H28V28H0Z" transform="translate(2426 -1086)" fill="none"/>
    <g id="Group_1948" data-name="Group 1948" transform="translate(2426.081 -1084.919)">
      <g id="Union_13" data-name="Union 13" transform="translate(385.784 -4741.216)">
        <path d="M -377.1372680664063 4763.68310546875 C -378.5057373046875 4763.68310546875 -379.7920837402344 4763.1513671875 -380.7593688964844 4762.18505859375 C -381.7265930175781 4761.2197265625 -382.25927734375 4759.93603515625 -382.25927734375 4758.57080078125 C -382.25927734375 4757.20556640625 -381.7265930175781 4755.921875 -380.7593994140625 4754.95654296875 L -371.0424194335938 4745.25634765625 C -370.0749816894531 4744.29052734375 -368.7886047363281 4743.75830078125 -367.4202575683594 4743.75830078125 C -366.0519104003906 4743.75830078125 -364.7655334472656 4744.29052734375 -363.7981262207031 4745.25634765625 C -362.8309326171875 4746.2216796875 -362.2982482910156 4747.50537109375 -362.2982482910156 4748.87060546875 C -362.2982482910156 4750.23583984375 -362.8309326171875 4751.51953125 -363.7981262207031 4752.48486328125 L -368.0899047851563 4756.76904296875 L -368.443603515625 4757.1220703125 L -368.2757873535156 4757.29052734375 L -372.7632446289063 4761.77783203125 C -373.2082824707031 4762.22265625 -373.7228088378906 4762.5771484375 -374.29248046875 4762.8310546875 L -374.3276977539063 4762.8466796875 L -374.3600463867188 4762.86767578125 C -375.1869812011719 4763.40087890625 -376.1473083496094 4763.68310546875 -377.1372680664063 4763.68310546875 Z" stroke="none"/>
        <path d="M -377.1372680664063 4763.18310546875 C -376.2436828613281 4763.18310546875 -375.3770751953125 4762.9287109375 -374.6311645507813 4762.447265625 L -374.56640625 4762.40576171875 L -374.4960327148438 4762.3740234375 C -373.982421875 4762.1455078125 -373.5183410644531 4761.82568359375 -373.1167907714844 4761.42431640625 L -368.982421875 4757.2900390625 L -369.1505432128906 4757.12158203125 L -368.4431457519531 4756.41552734375 L -364.1513977050781 4752.13134765625 C -363.27880859375 4751.26025390625 -362.7982482910156 4750.10205078125 -362.7982482910156 4748.87060546875 C -362.7982482910156 4747.63916015625 -363.27880859375 4746.48095703125 -364.1513977050781 4745.60986328125 C -365.0243835449219 4744.73828125 -366.185302734375 4744.25830078125 -367.4202575683594 4744.25830078125 C -368.6552124023438 4744.25830078125 -369.8161315917969 4744.73828125 -370.6891784667969 4745.60986328125 L -380.4061279296875 4755.31005859375 C -381.2787170410156 4756.18115234375 -381.75927734375 4757.33935546875 -381.75927734375 4758.57080078125 C -381.75927734375 4759.80224609375 -381.2787170410156 4760.96044921875 -380.4060668945313 4761.83154296875 C -379.533203125 4762.703125 -378.372314453125 4763.18310546875 -377.1372680664063 4763.18310546875 M -377.1372680664063 4764.18310546875 C -378.5760803222656 4764.18310546875 -380.0149230957031 4763.63525390625 -381.1126708984375 4762.5390625 C -383.3081359863281 4760.34716796875 -383.3081359863281 4756.79443359375 -381.1126708984375 4754.6025390625 L -371.3956604003906 4744.90234375 C -370.2979125976563 4743.806640625 -368.8591003417969 4743.25830078125 -367.4202575683594 4743.25830078125 C -365.9814147949219 4743.25830078125 -364.5426025390625 4743.806640625 -363.4448547363281 4744.90234375 C -361.2493896484375 4747.09423828125 -361.2493896484375 4750.64697265625 -363.4448547363281 4752.8388671875 L -367.7366638183594 4757.123046875 L -367.5691528320313 4757.291015625 L -372.4096984863281 4762.13134765625 C -372.9093627929688 4762.630859375 -373.4797973632813 4763.01611328125 -374.0889587402344 4763.28759765625 C -375.0136413574219 4763.88427734375 -376.0755310058594 4764.18310546875 -377.1372680664063 4764.18310546875 Z" stroke="none"/>
      </g>
      <path id="Path_2803" data-name="Path 2803" d="M0,0H9.108V6.051A4.765,4.765,0,0,1,4.554,11,4.765,4.765,0,0,1,0,6.051Z" transform="translate(16.91 15.518) rotate(-135)" fill="#fff"/>
      <g id="Ellipse_17" data-name="Ellipse 17" transform="translate(16.147 14.475)" fill="none" stroke="#000" stroke-width="1">
        <circle cx="5" cy="5" r="5" stroke="none"/>
        <circle cx="5" cy="5" r="4.5" fill="none"/>
      </g>
      <path id="Path_2724" data-name="Path 2724" d="M0,0H8.186" transform="translate(18.216 16.65) rotate(45)" fill="none" stroke="#000" stroke-width="1"/>
    </g>
  </g>
</svg>
