<svg xmlns="http://www.w3.org/2000/svg" width="30" height="30" viewBox="0 0 30 30">
  <g id="_chat" data-name=" chat" transform="translate(-442 -1217.135)">
    <path id="Icon" d="M.511,27.767v0L.526,2.391A2.855,2.855,0,0,1,3.409-.428H26.6a2.863,2.863,0,0,1,2.9,2.82V19.309a2.862,2.862,0,0,1-2.9,2.819H6.307L.513,27.765ZM7.25,14.5a1.45,1.45,0,1,0,0,2.9h8.7a1.45,1.45,0,0,0,0-2.9ZM6.8,10.15a1,1,0,0,0-1,1v.9a1,1,0,0,0,1,1H22.2a1,1,0,0,0,1-1v-.9a1,1,0,0,0-1-1ZM7.25,5.8a1.45,1.45,0,0,0,0,2.9h14.5a1.45,1.45,0,0,0,0-2.9Z" transform="translate(442 1218.135)"/>
    <rect id="Rectangle_129" data-name="Rectangle 129" width="30" height="30" transform="translate(442 1217.135)" fill="none"/>
  </g>
</svg>
