<svg xmlns="http://www.w3.org/2000/svg" width="42.588" height="42.587" viewBox="0 0 42.588 42.587">
  <g id="floppy-disk" transform="translate(0.001 -0.003)">
    <path id="Path_3129" data-name="Path 3129" d="M128.248,11.9h11.562V0H127V10.65A1.249,1.249,0,0,0,128.248,11.9Z" transform="translate(-116.437 0)" fill="#707070"/>
    <path id="Path_3130" data-name="Path 3130" d="M313.828,10.65V0H311V11.9h1.58A1.249,1.249,0,0,0,313.828,10.65Z" transform="translate(-285.132 0)" fill="#707070"/>
    <path id="Path_3131" data-name="Path 3131" d="M127,364.395h18.133V351H127Z" transform="translate(-116.437 -321.804)" fill="#707070"/>
    <path id="Path_3132" data-name="Path 3132" d="M42.58,10.528A1.25,1.25,0,0,0,42.3,9.86c-.062-.076.573.564-9.483-9.492A1.257,1.257,0,0,0,31.939,0h-.748V10.65a3.747,3.747,0,0,1-3.743,3.743H11.81A3.747,3.747,0,0,1,8.067,10.65V0H3.742A3.747,3.747,0,0,0,0,3.746v35.1A3.747,3.747,0,0,0,3.742,42.59H8.067V25.123A3.747,3.747,0,0,1,11.81,21.38H27.448a3.747,3.747,0,0,1,3.743,3.743V42.59h7.652a3.747,3.747,0,0,0,3.743-3.743c0-30.292,0-28.224-.006-28.319Z" transform="translate(0 0)" fill="#707070"/>
    <path id="Path_3133" data-name="Path 3133" d="M143.885,287H128.248A1.249,1.249,0,0,0,127,288.251v1.58h18.133v-1.58A1.249,1.249,0,0,0,143.885,287Z" transform="translate(-116.437 -263.128)" fill="#707070"/>
  </g>
</svg>
