<svg xmlns="http://www.w3.org/2000/svg" width="30" height="30" viewBox="0 0 30 30">
  <g id="Group_2118" data-name="Group 2118" transform="translate(-709 -34)">
    <rect id="Rectangle_142" data-name="Rectangle 142" width="30" height="30" transform="translate(709 34)" fill="none"/>
    <g id="Group_2357" data-name="Group 2357">
      <path id="Path_822" data-name="Path 822" d="M855.006,137.24h24.157a1.757,1.757,0,0,1,1.244.521,1.868,1.868,0,0,1,.508,1.263v3.789h-7.569a2.228,2.228,0,0,0-1.593.7,2.3,2.3,0,0,0-.659,1.629v4.791a2.328,2.328,0,0,0,.659,1.634,2.242,2.242,0,0,0,1.593.693h7.569v3.776a1.911,1.911,0,0,1-.508,1.276,1.794,1.794,0,0,1-1.244.521H855.006a1.723,1.723,0,0,1-1.227-.521,1.815,1.815,0,0,1-.512-1.276V139.024a1.776,1.776,0,0,1,.512-1.263,1.688,1.688,0,0,1,1.227-.521Zm18.341,6.88h7.844a1,1,0,0,1,.99,1.02v4.791a1.017,1.017,0,0,1-.99,1.024h-7.844a1.02,1.02,0,0,1-.995-1.024V145.14a1.008,1.008,0,0,1,.995-1.02Zm-18.384-7.945c5.394-1.4,14.918-2.787,20.326-4.164a1.07,1.07,0,0,1,.981.618q.439,1.769.9,3.546Zm22.181,9.3a1.985,1.985,0,0,1,1.963,2,1.96,1.96,0,1,1-3.918,0,1.978,1.978,0,0,1,1.955-2Z" transform="translate(-143.767 -95.511)" fill-rule="evenodd"/>
    </g>
  </g>
</svg>

