<svg xmlns="http://www.w3.org/2000/svg" xmlns:xlink="http://www.w3.org/1999/xlink" width="120.256" height="35.664" viewBox="0 0 120.256 35.664">
  <defs>
    <linearGradient id="linear-gradient" y1="0.5" x2="1" y2="0.5" gradientUnits="objectBoundingBox">
      <stop offset="0" stop-color="#8fbedc"/>
      <stop offset="1" stop-color="#5c3f91"/>
    </linearGradient>
    <filter id="Exclusion_12" x="0" y="0" width="51.497" height="35.664" filterUnits="userSpaceOnUse">
      <feOffset dx="1" dy="1" input="SourceAlpha"/>
      <feGaussianBlur stdDeviation="0.5" result="blur"/>
      <feFlood flood-opacity="0.361"/>
      <feComposite operator="in" in2="blur"/>
      <feComposite in="SourceGraphic"/>
    </filter>
  </defs>
  <g id="Group_4898" data-name="Group 4898" transform="translate(-199.5 -33)">
    <g id="Group_4826" data-name="Group 4826" transform="translate(-85.631 -231.938)">
      <g transform="matrix(1, 0, 0, 1, 285.13, 264.94)" filter="url(#Exclusion_12)">
        <path id="Exclusion_12-2" data-name="Exclusion 12" d="M36.677,32.664h-25.8a1.746,1.746,0,0,1-.535-.085,11.75,11.75,0,1,1,9.892-3.548H35.165a9.84,9.84,0,0,0,7.169-3.079,9.265,9.265,0,0,0,2.509-7.011,9.387,9.387,0,0,0-7.195-8.55,13.015,13.015,0,0,1-4.018,12.4,1.723,1.723,0,0,1-1.158.445,1.758,1.758,0,0,1-1.2-.472,1.8,1.8,0,0,1-.314-.341L28.6,19.058a1.8,1.8,0,1,1,2.957-2.067L32.6,18.482A9.454,9.454,0,0,0,21.925,4.1l1.308,1.87a1.718,1.718,0,1,1-2.815,1.969L17.983,4.455a1.608,1.608,0,0,1-.161-.3l-.009-.011a1.668,1.668,0,0,1,.52-2.419A13.092,13.092,0,0,1,35.459,5.441c.241.335.473.693.688,1.064a13.09,13.09,0,0,1,.53,26.1v.063ZM11.747,12.8a8.114,8.114,0,1,0,8.114,8.114A8.123,8.123,0,0,0,11.747,12.8Z" transform="translate(0.5 0.5)" fill="url(#linear-gradient)"/>
      </g>
      <path id="Path_2762" data-name="Path 2762" d="M9.248-16.284a7.8,7.8,0,0,1-3.789-.92,6.783,6.783,0,0,1-2.651-2.543,7.053,7.053,0,0,1-.96-3.661,7,7,0,0,1,.97-3.661,6.854,6.854,0,0,1,2.661-2.543,7.8,7.8,0,0,1,3.789-.92,7.9,7.9,0,0,1,3.107.594,6.336,6.336,0,0,1,2.374,1.721l-1.662,1.563a4.847,4.847,0,0,0-3.7-1.623,5.188,5.188,0,0,0-2.553.623A4.49,4.49,0,0,0,5.073-25.92a4.974,4.974,0,0,0-.633,2.513,4.974,4.974,0,0,0,.633,2.513,4.49,4.49,0,0,0,1.761,1.731,5.188,5.188,0,0,0,2.553.623,4.821,4.821,0,0,0,3.7-1.642L14.749-18.6a6.319,6.319,0,0,1-2.384,1.721A7.976,7.976,0,0,1,9.248-16.284Zm7.737-14.88h2.473v14.682H16.985Zm10.467,14.82a6,6,0,0,1-2.889-.693,5.05,5.05,0,0,1-2.008-1.929,5.448,5.448,0,0,1-.722-2.8,5.4,5.4,0,0,1,.722-2.79,5.07,5.07,0,0,1,2.008-1.919,6,6,0,0,1,2.889-.693,6.037,6.037,0,0,1,2.909.693,5.07,5.07,0,0,1,2.008,1.919,5.4,5.4,0,0,1,.722,2.79,5.448,5.448,0,0,1-.722,2.8,5.05,5.05,0,0,1-2.008,1.929A6.037,6.037,0,0,1,27.452-16.344Zm0-2.117a3.022,3.022,0,0,0,2.256-.91,3.277,3.277,0,0,0,.89-2.394,3.277,3.277,0,0,0-.89-2.394,3.022,3.022,0,0,0-2.256-.91,2.99,2.99,0,0,0-2.246.91,3.3,3.3,0,0,0-.881,2.394,3.3,3.3,0,0,0,.881,2.394A2.99,2.99,0,0,0,27.452-18.461ZM45.7-27.048v10.566H43.341v-1.346a3.936,3.936,0,0,1-1.484,1.1,4.775,4.775,0,0,1-1.919.386A4.593,4.593,0,0,1,36.6-17.521a4.645,4.645,0,0,1-1.217-3.492v-6.035H37.86v5.7a3.061,3.061,0,0,0,.643,2.127,2.356,2.356,0,0,0,1.83.7,2.772,2.772,0,0,0,2.107-.821,3.3,3.3,0,0,0,.782-2.365v-5.342ZM59.29-31.164v14.682H56.915v-1.365A3.827,3.827,0,0,1,55.4-16.72a5.112,5.112,0,0,1-1.989.376,5.568,5.568,0,0,1-2.741-.673,4.834,4.834,0,0,1-1.909-1.909,5.712,5.712,0,0,1-.693-2.839,5.657,5.657,0,0,1,.693-2.83,4.852,4.852,0,0,1,1.909-1.9,5.568,5.568,0,0,1,2.741-.673,5.023,5.023,0,0,1,1.919.356,3.861,3.861,0,0,1,1.484,1.068v-5.422Zm-5.58,12.7a3.181,3.181,0,0,0,1.6-.406,2.931,2.931,0,0,0,1.128-1.158,3.541,3.541,0,0,0,.416-1.741,3.541,3.541,0,0,0-.416-1.741,2.931,2.931,0,0,0-1.128-1.158,3.181,3.181,0,0,0-1.6-.406,3.181,3.181,0,0,0-1.6.406,2.932,2.932,0,0,0-1.128,1.158,3.541,3.541,0,0,0-.416,1.741,3.541,3.541,0,0,0,.416,1.741,2.932,2.932,0,0,0,1.128,1.158A3.181,3.181,0,0,0,53.71-18.461ZM2.857-11.111H8.138a7.635,7.635,0,0,1,3.527.788,5.787,5.787,0,0,1,2.39,2.211,6.246,6.246,0,0,1,.85,3.267,6.246,6.246,0,0,1-.85,3.267A5.787,5.787,0,0,1,11.665.633a7.635,7.635,0,0,1-3.527.788H2.857ZM8.031-.137a5.8,5.8,0,0,0,2.676-.591,4.271,4.271,0,0,0,1.781-1.656,4.764,4.764,0,0,0,.627-2.462,4.764,4.764,0,0,0-.627-2.462,4.271,4.271,0,0,0-1.781-1.656,5.8,5.8,0,0,0-2.676-.591H4.647V-.137ZM21.458,1.528A5.145,5.145,0,0,1,18.916.9,4.544,4.544,0,0,1,17.152-.826a4.9,4.9,0,0,1-.636-2.5,4.9,4.9,0,0,1,.636-2.5A4.481,4.481,0,0,1,18.916-7.54a5.2,5.2,0,0,1,2.542-.618,5.154,5.154,0,0,1,2.533.618,4.5,4.5,0,0,1,1.754,1.719,4.9,4.9,0,0,1,.636,2.5,4.9,4.9,0,0,1-.636,2.5A4.561,4.561,0,0,1,23.991.9,5.1,5.1,0,0,1,21.458,1.528Zm0-1.5A3.2,3.2,0,0,0,23.1-.4a2.97,2.97,0,0,0,1.137-1.182,3.609,3.609,0,0,0,.412-1.745,3.609,3.609,0,0,0-.412-1.745A2.908,2.908,0,0,0,23.1-6.242a3.258,3.258,0,0,0-1.638-.412,3.258,3.258,0,0,0-1.638.412,2.968,2.968,0,0,0-1.146,1.173,3.547,3.547,0,0,0-.421,1.745,3.547,3.547,0,0,0,.421,1.745A3.032,3.032,0,0,0,19.82-.4,3.2,3.2,0,0,0,21.458.024Zm11.44,1.5A5.27,5.27,0,0,1,30.311.9,4.591,4.591,0,0,1,28.529-.826a4.851,4.851,0,0,1-.644-2.5,4.851,4.851,0,0,1,.644-2.5A4.528,4.528,0,0,1,30.311-7.54,5.331,5.331,0,0,1,32.9-8.157a4.966,4.966,0,0,1,2.3.519,3.7,3.7,0,0,1,1.566,1.5l-1.307.841a2.92,2.92,0,0,0-1.11-1.02,3.166,3.166,0,0,0-1.468-.34,3.394,3.394,0,0,0-1.674.412,2.934,2.934,0,0,0-1.164,1.173,3.547,3.547,0,0,0-.421,1.745,3.585,3.585,0,0,0,.421,1.763A2.934,2.934,0,0,0,31.206-.388,3.394,3.394,0,0,0,32.88.024a3.166,3.166,0,0,0,1.468-.34,2.92,2.92,0,0,0,1.11-1.02l1.307.824A3.754,3.754,0,0,1,35.2,1,4.9,4.9,0,0,1,32.9,1.528ZM44.445.865a2.564,2.564,0,0,1-.931.492,3.888,3.888,0,0,1-1.146.17,3.043,3.043,0,0,1-2.22-.77,2.94,2.94,0,0,1-.788-2.2v-5.21H37.749V-8.068H39.36v-2.077h1.719v2.077H43.8v1.414H41.079v5.138a1.667,1.667,0,0,0,.385,1.182,1.434,1.434,0,0,0,1.1.412A2.071,2.071,0,0,0,43.908-.37Zm5.818.662A5.145,5.145,0,0,1,47.721.9,4.544,4.544,0,0,1,45.957-.826a4.9,4.9,0,0,1-.636-2.5,4.9,4.9,0,0,1,.636-2.5A4.481,4.481,0,0,1,47.721-7.54a5.2,5.2,0,0,1,2.542-.618A5.154,5.154,0,0,1,52.8-7.54a4.5,4.5,0,0,1,1.754,1.719,4.9,4.9,0,0,1,.636,2.5,4.9,4.9,0,0,1-.636,2.5A4.561,4.561,0,0,1,52.8.9,5.1,5.1,0,0,1,50.263,1.528Zm0-1.5A3.2,3.2,0,0,0,51.9-.4a2.97,2.97,0,0,0,1.137-1.182,3.609,3.609,0,0,0,.412-1.745,3.609,3.609,0,0,0-.412-1.745A2.908,2.908,0,0,0,51.9-6.242a3.258,3.258,0,0,0-1.638-.412,3.258,3.258,0,0,0-1.638.412,2.968,2.968,0,0,0-1.146,1.173,3.547,3.547,0,0,0-.421,1.745,3.547,3.547,0,0,0,.421,1.745A3.032,3.032,0,0,0,48.625-.4,3.2,3.2,0,0,0,50.263.024Zm8.951-6.5a2.932,2.932,0,0,1,1.325-1.253,4.808,4.808,0,0,1,2.13-.43v1.665a3.355,3.355,0,0,0-.394-.018,2.892,2.892,0,0,0-2.193.832,3.3,3.3,0,0,0-.8,2.372V1.42H57.567V-8.068h1.647Z" transform="translate(342.717 296.102)" fill="#131313"/>
    </g>
  </g>
</svg>
