<svg xmlns="http://www.w3.org/2000/svg" width="28" height="28" viewBox="0 0 28 28">
  <g id="Bottom_print" data-name="Bottom print" transform="translate(-1057.604 -755.604)">
    <g id="_print" data-name=" print" transform="translate(1058 756)">
      <rect id="Path" width="28" height="28" transform="translate(-0.396 -0.396)" fill="rgba(0,0,0,0)"/>
      <path id="Icon" d="M18.9,25H8.1a2.743,2.743,0,0,1-2.7-2.778V19.444H2.7A2.743,2.743,0,0,1,0,16.666V11.11A4.114,4.114,0,0,1,4.051,6.944h18.9A4.114,4.114,0,0,1,27,11.11v5.556a2.743,2.743,0,0,1-2.7,2.778H21.6v2.779A2.743,2.743,0,0,1,18.9,25ZM8.1,15.277h0v5.555a1.372,1.372,0,0,0,1.35,1.39h8.1a1.372,1.372,0,0,0,1.35-1.39V15.277ZM22.949,9.722a1.389,1.389,0,1,0,1.35,1.389A1.371,1.371,0,0,0,22.949,9.722Zm-2.7-4.168H6.75A1.371,1.371,0,0,1,5.4,4.166V1.389A1.371,1.371,0,0,1,6.75,0h13.5A1.371,1.371,0,0,1,21.6,1.389V4.166A1.371,1.371,0,0,1,20.25,5.555Z" transform="translate(0.604 0.604)" fill="#707070"/>
    </g>
  </g>
</svg>
