<svg xmlns="http://www.w3.org/2000/svg" width="30" height="30" viewBox="0 0 30 30">
  <g id="Search" transform="translate(-709.431 -34.431)">
    <rect id="Rectangle_142" data-name="Rectangle 142" width="30" height="30" transform="translate(709.431 34.431)" fill="none"/>
    <path id="Icon" d="M24.39,26a1.587,1.587,0,0,1-1.129-.469l-6.494-6.478v-1.2l-.412-.427a9.937,9.937,0,0,1-6.458,2.4,10.233,10.233,0,0,1-1.682-.141A9.913,9.913,0,0,1,9.9,0a10.319,10.319,0,0,1,1.253.077,9.9,9.9,0,0,1,6.266,16.279l.427.41h1.2l6.479,6.494a1.6,1.6,0,0,1,0,2.255l-.015.015A1.587,1.587,0,0,1,24.39,26ZM9.907,3.05a6.859,6.859,0,1,0,6.861,6.859A6.867,6.867,0,0,0,9.907,3.05Z" transform="translate(711.431 36.43)" fill="#707070"/>
  </g>
</svg>
