<svg xmlns="http://www.w3.org/2000/svg" width="28" height="28" viewBox="0 0 28 28">
  <path id="Subtraction_1" data-name="Subtraction 1" d="M14.5,28.5a14.084,14.084,0,0,1-3.115-.348c1.157-1.675,1.338-1.79,1.938-2.169.162-.1.364-.23.624-.414.512-.308.9-.526,1.209-.7a7.89,7.89,0,0,0,2.586-2.143c1.939-2.721,3.935-5.6,5.932-8.553a2.7,2.7,0,0,0-.136-3.219,1.547,1.547,0,0,0-.772-.527l-.174-.069a3.14,3.14,0,0,0,.61-2.493c-.205-.629-.81-1.147-1.9-1.63a.02.02,0,0,1-.011-.02A2.024,2.024,0,0,0,20.338,4a2.273,2.273,0,0,0-1.256-.456,1.854,1.854,0,0,0-1.383.723c-.014.016-.228.248-.24.251a1.674,1.674,0,0,0-.893-1.158,2.231,2.231,0,0,0-1.037-.281,2.349,2.349,0,0,0-1.88,1.186C12.627,5.708,11.595,7.179,10.6,8.6l-.006.008Q9.71,9.866,8.829,11.12c-.082.116-.171.228-.283.37l-.17.217a.021.021,0,0,1-.016.008.022.022,0,0,1-.023-.02c-.009-.19-.016-.363-.023-.525-.015-.359-.027-.665-.053-.966A2.314,2.314,0,0,0,6.087,7.987H6.015A2.2,2.2,0,0,0,3.86,10.033c-.218,1.743-.464,3.808-.643,5.913a11.241,11.241,0,0,0,.28,4.4l-.981,1.4A14,14,0,1,1,14.5,28.5Zm-4.065-.6h0a14.082,14.082,0,0,1-7.357-5.3l.844-1.2.2-.289.527-.75a5.034,5.034,0,0,1-.18-.571,5.549,5.549,0,0,1-.13-.645,6.5,6.5,0,0,1-.05-1.313c.137-2.246.358-4.524.572-6.727l.086-.889a1.114,1.114,0,0,1,1.062-1.1h.021a1.114,1.114,0,0,1,1.089,1.165c.039.55.059,1.112.078,1.654.013.378.027.768.047,1.153,0,.053,0,.108,0,.165.006.351.013.749.455.775h.022a1.28,1.28,0,0,0,.825-.549c1.944-2.724,3.9-5.515,5.786-8.214l.249-.356c.25-.359.514-.68.978-.68a1.179,1.179,0,0,1,.241.027,1.052,1.052,0,0,1,.7.509.977.977,0,0,1,.081.809,3,3,0,0,1-.4.714c-1.19,1.7-2.38,3.4-3.539,5.04-.21.3-.472.671-.071.973a.568.568,0,0,0,.338.131c.256,0,.458-.239.621-.472,1.46-2.09,3-4.291,4.592-6.541a1.289,1.289,0,0,1,1-.666.975.975,0,0,1,.434.109,1.027,1.027,0,0,1,.581.655,1.288,1.288,0,0,1-.269,1.051C18.793,8.1,17.689,9.676,16.621,11.2l-.017.024L15.36,12.991a.918.918,0,0,0-.218.952.359.359,0,0,0,.365.255.669.669,0,0,0,.19-.03.967.967,0,0,0,.551-.474l.064-.092,1.741-2.478q1.051-1.5,2.1-2.989c.336-.478.653-.7,1-.7a1.022,1.022,0,0,1,.522.162.976.976,0,0,1,.511.6,1.278,1.278,0,0,1-.271.969c-.784,1.212-1.617,2.419-2.423,3.586q-.426.617-.849,1.232c-.252.371-.5.727-.714,1.027-.028.039-.062.085-.1.137-.291.387-.777,1.033-.331,1.37a.45.45,0,0,0,.272.1c.362,0,.694-.507.913-.843.052-.079.1-.148.137-.2.25-.344.5-.692.726-1.018l.471-.671.012-.018c.325-.463.66-.942,1-1.41a2.24,2.24,0,0,1,.767-.775,1.327,1.327,0,0,1,.524-.1.827.827,0,0,1,.479.12.974.974,0,0,1,.455.733,1.606,1.606,0,0,1-.391,1.051l-.043.062c-1.053,1.526-5.1,7.33-6.09,8.677a5.5,5.5,0,0,1-1.995,1.807,9.035,9.035,0,0,0-.781.472c-.308.2-.531.335-.728.45a6.429,6.429,0,0,0-1.763,1.492L10.436,27.9ZM10.3,18.7a2.8,2.8,0,1,0,2.8,2.8A2.8,2.8,0,0,0,10.3,18.7Zm4.2-1.4a1.4,1.4,0,1,0,1.4,1.4A1.4,1.4,0,0,0,14.5,17.3Zm-7-2.8a1.4,1.4,0,1,0,1.4,1.4A1.4,1.4,0,0,0,7.5,14.5Z" transform="translate(-0.499 -0.5)" opacity="0.4"/>
</svg>
