<svg xmlns="http://www.w3.org/2000/svg" xmlns:xlink="http://www.w3.org/1999/xlink" width="808.05" height="277.634" viewBox="0 0 808.05 277.634">
  <defs>
    <clipPath id="clip-path">
      <rect width="808.05" height="277.634" fill="none"/>
    </clipPath>
  </defs>
  <g id="Repeat_Grid_12" data-name="Repeat Grid 12" clip-path="url(#clip-path)">
    <g id="Group_1004" data-name="Group 1004" transform="translate(-428 -563)">
      <text id="_8AM" data-name="8AM" transform="translate(443 578)" fill="#9f9f9f" font-size="14" font-family="SegoeUI, Segoe UI"><tspan x="-14.574" y="0">8AM</tspan></text>
      <g id="Group_993" data-name="Group 993" transform="translate(441 585)">
        <circle id="Ellipse_7" data-name="Ellipse 7" cx="2" cy="2" r="2" fill="#9f9f9f"/>
        <path id="Path_2670" data-name="Path 2670" d="M442,2433v251.33" transform="translate(-440 -2431)" fill="none" stroke="#9f9f9f" stroke-width="0.1"/>
      </g>
      <path id="Path_2671" data-name="Path 2671" d="M442,2433v271.33" transform="translate(41 -1866)" fill="none" stroke="#9f9f9f" stroke-width="0.1"/>
    </g>
    <g id="Group_1004-2" data-name="Group 1004" transform="translate(-350 -563)">
      <text id="_9AM" data-name="9AM" transform="translate(443 578)" fill="#9f9f9f" font-size="14" font-family="SegoeUI, Segoe UI"><tspan x="-14.574" y="0">9AM</tspan></text>
      <g id="Group_993-2" data-name="Group 993" transform="translate(441 585)">
        <circle id="Ellipse_7-2" data-name="Ellipse 7" cx="2" cy="2" r="2" fill="#9f9f9f"/>
        <path id="Path_2670-2" data-name="Path 2670" d="M442,2433v251.33" transform="translate(-440 -2431)" fill="none" stroke="#9f9f9f" stroke-width="0.1"/>
      </g>
      <path id="Path_2671-2" data-name="Path 2671" d="M442,2433v271.33" transform="translate(41 -1866)" fill="none" stroke="#9f9f9f" stroke-width="0.1"/>
    </g>
    <g id="Group_1004-3" data-name="Group 1004" transform="translate(-272 -563)">
      <text id="_10AM" data-name="10AM" transform="translate(443 578)" fill="#9f9f9f" font-size="14" font-family="SegoeUI, Segoe UI"><tspan x="-18.348" y="0">10AM</tspan></text>
      <g id="Group_993-3" data-name="Group 993" transform="translate(441 585)">
        <circle id="Ellipse_7-3" data-name="Ellipse 7" cx="2" cy="2" r="2" fill="#9f9f9f"/>
        <path id="Path_2670-3" data-name="Path 2670" d="M442,2433v251.33" transform="translate(-440 -2431)" fill="none" stroke="#9f9f9f" stroke-width="0.1"/>
      </g>
      <path id="Path_2671-3" data-name="Path 2671" d="M442,2433v271.33" transform="translate(41 -1866)" fill="none" stroke="#9f9f9f" stroke-width="0.1"/>
    </g>
    <g id="Group_1004-4" data-name="Group 1004" transform="translate(-194 -563)">
      <text id="_11AM" data-name="11AM" transform="translate(443 578)" fill="#9f9f9f" font-size="14" font-family="SegoeUI, Segoe UI"><tspan x="-18.348" y="0">11AM</tspan></text>
      <g id="Group_993-4" data-name="Group 993" transform="translate(441 585)">
        <circle id="Ellipse_7-4" data-name="Ellipse 7" cx="2" cy="2" r="2" fill="#9f9f9f"/>
        <path id="Path_2670-4" data-name="Path 2670" d="M442,2433v251.33" transform="translate(-440 -2431)" fill="none" stroke="#9f9f9f" stroke-width="0.1"/>
      </g>
      <path id="Path_2671-4" data-name="Path 2671" d="M442,2433v271.33" transform="translate(41 -1866)" fill="none" stroke="#9f9f9f" stroke-width="0.1"/>
    </g>
    <g id="Group_1004-5" data-name="Group 1004" transform="translate(-116 -563)">
      <text id="_12PM" data-name="12PM" transform="translate(443 578)" fill="#9f9f9f" font-size="14" font-family="SegoeUI, Segoe UI"><tspan x="-17.753" y="0">12PM</tspan></text>
      <g id="Group_993-5" data-name="Group 993" transform="translate(441 585)">
        <circle id="Ellipse_7-5" data-name="Ellipse 7" cx="2" cy="2" r="2" fill="#9f9f9f"/>
        <path id="Path_2670-5" data-name="Path 2670" d="M442,2433v251.33" transform="translate(-440 -2431)" fill="none" stroke="#9f9f9f" stroke-width="0.1"/>
      </g>
      <path id="Path_2671-5" data-name="Path 2671" d="M442,2433v271.33" transform="translate(41 -1866)" fill="none" stroke="#9f9f9f" stroke-width="0.1"/>
    </g>
    <g id="Group_1004-6" data-name="Group 1004" transform="translate(-38 -563)">
      <text id="_1PM" data-name="1PM" transform="translate(443 578)" fill="#9f9f9f" font-size="14" font-family="SegoeUI, Segoe UI"><tspan x="-13.979" y="0">1PM</tspan></text>
      <g id="Group_993-6" data-name="Group 993" transform="translate(441 585)">
        <circle id="Ellipse_7-6" data-name="Ellipse 7" cx="2" cy="2" r="2" fill="#9f9f9f"/>
        <path id="Path_2670-6" data-name="Path 2670" d="M442,2433v251.33" transform="translate(-440 -2431)" fill="none" stroke="#9f9f9f" stroke-width="0.1"/>
      </g>
      <path id="Path_2671-6" data-name="Path 2671" d="M442,2433v271.33" transform="translate(41 -1866)" fill="none" stroke="#9f9f9f" stroke-width="0.1"/>
    </g>
    <g id="Group_1004-7" data-name="Group 1004" transform="translate(40 -563)">
      <text id="_2PM" data-name="2PM" transform="translate(443 578)" fill="#9f9f9f" font-size="14" font-family="SegoeUI, Segoe UI"><tspan x="-13.979" y="0">2PM</tspan></text>
      <g id="Group_993-7" data-name="Group 993" transform="translate(441 585)">
        <circle id="Ellipse_7-7" data-name="Ellipse 7" cx="2" cy="2" r="2" fill="#9f9f9f"/>
        <path id="Path_2670-7" data-name="Path 2670" d="M442,2433v251.33" transform="translate(-440 -2431)" fill="none" stroke="#9f9f9f" stroke-width="0.1"/>
      </g>
      <path id="Path_2671-7" data-name="Path 2671" d="M442,2433v271.33" transform="translate(41 -1866)" fill="none" stroke="#9f9f9f" stroke-width="0.1"/>
    </g>
    <g id="Group_1004-8" data-name="Group 1004" transform="translate(118 -563)">
      <text id="_3PM" data-name="3PM" transform="translate(443 578)" fill="#9f9f9f" font-size="14" font-family="SegoeUI, Segoe UI"><tspan x="-13.979" y="0">3PM</tspan></text>
      <g id="Group_993-8" data-name="Group 993" transform="translate(441 585)">
        <circle id="Ellipse_7-8" data-name="Ellipse 7" cx="2" cy="2" r="2" fill="#9f9f9f"/>
        <path id="Path_2670-8" data-name="Path 2670" d="M442,2433v251.33" transform="translate(-440 -2431)" fill="none" stroke="#9f9f9f" stroke-width="0.1"/>
      </g>
      <path id="Path_2671-8" data-name="Path 2671" d="M442,2433v271.33" transform="translate(41 -1866)" fill="none" stroke="#9f9f9f" stroke-width="0.1"/>
    </g>
    <g id="Group_1004-9" data-name="Group 1004" transform="translate(196 -563)">
      <text id="_4PM" data-name="4PM" transform="translate(443 578)" fill="#9f9f9f" font-size="14" font-family="SegoeUI, Segoe UI"><tspan x="-13.979" y="0">4PM</tspan></text>
      <g id="Group_993-9" data-name="Group 993" transform="translate(441 585)">
        <circle id="Ellipse_7-9" data-name="Ellipse 7" cx="2" cy="2" r="2" fill="#9f9f9f"/>
        <path id="Path_2670-9" data-name="Path 2670" d="M442,2433v251.33" transform="translate(-440 -2431)" fill="none" stroke="#9f9f9f" stroke-width="0.1"/>
      </g>
      <path id="Path_2671-9" data-name="Path 2671" d="M442,2433v271.33" transform="translate(41 -1866)" fill="none" stroke="#9f9f9f" stroke-width="0.1"/>
    </g>
    <g id="Group_1004-10" data-name="Group 1004" transform="translate(274 -563)">
      <text id="_5PM" data-name="5PM" transform="translate(443 578)" fill="#9f9f9f" font-size="14" font-family="SegoeUI, Segoe UI"><tspan x="-13.979" y="0">5PM</tspan></text>
      <g id="Group_993-10" data-name="Group 993" transform="translate(441 585)">
        <circle id="Ellipse_7-10" data-name="Ellipse 7" cx="2" cy="2" r="2" fill="#9f9f9f"/>
        <path id="Path_2670-10" data-name="Path 2670" d="M442,2433v251.33" transform="translate(-440 -2431)" fill="none" stroke="#9f9f9f" stroke-width="0.1"/>
      </g>
      <path id="Path_2671-10" data-name="Path 2671" d="M442,2433v271.33" transform="translate(41 -1866)" fill="none" stroke="#9f9f9f" stroke-width="0.1"/>
    </g>
    <g id="Group_1004-11" data-name="Group 1004" transform="translate(352 -563)">
      <text id="_6PM" data-name="6PM" transform="translate(443 578)" fill="#9f9f9f" font-size="14" font-family="SegoeUI, Segoe UI"><tspan x="-13.979" y="0">6PM</tspan></text>
      <g id="Group_993-11" data-name="Group 993" transform="translate(441 585)">
        <circle id="Ellipse_7-11" data-name="Ellipse 7" cx="2" cy="2" r="2" fill="#9f9f9f"/>
        <path id="Path_2670-11" data-name="Path 2670" d="M442,2433v251.33" transform="translate(-440 -2431)" fill="none" stroke="#9f9f9f" stroke-width="0.1"/>
      </g>
      <path id="Path_2671-11" data-name="Path 2671" d="M442,2433v271.33" transform="translate(41 -1866)" fill="none" stroke="#9f9f9f" stroke-width="0.1"/>
    </g>
  </g>
</svg>

