<svg xmlns="http://www.w3.org/2000/svg" width="36" height="36" viewBox="0 0 36 36">
  <g id="_touch_app" data-name=" touch_app" transform="translate(-508 -242)">
    <rect id="Rectangle_Copy_26" data-name="Rectangle Copy 26" width="36" height="36" transform="translate(508 242)" fill="rgba(0,0,0,0)"/>
    <path id="Icon" d="M17.782,31.5H8.632A3.043,3.043,0,0,1,6.5,30.63L.487,24.615a1.683,1.683,0,0,1,0-2.369,1.713,1.713,0,0,1,1.2-.5,1.622,1.622,0,0,1,.343.037l5.16,1.08V6.75a2.25,2.25,0,1,1,4.5,0v9h.915a2.949,2.949,0,0,1,1.334.316l6.121,3.044A2.991,2.991,0,0,1,21.7,22.214l-.945,6.705A2.978,2.978,0,0,1,17.782,31.5ZM5.692,12.362l0,0a6.752,6.752,0,1,1,7.505,0l0-5.608a3.75,3.75,0,1,0-7.5,0v5.612Z" transform="translate(515.808 243.5)" fill="#707070"/>
  </g>
</svg>
