<svg xmlns="http://www.w3.org/2000/svg" width="48.003" height="24" viewBox="0 0 48.003 24">
  <g id="Vi" transform="translate(-844.999 -47.002)">
    <path id="Union_25" data-name="Union 25" d="M11370,16660h-24a12,12,0,0,1,0-24h24a12,12,0,1,1,0,24Z" transform="translate(-10489 -16589)" fill="#cfcfcf"/>
    <path id="Path_2889" data-name="Path 2889" d="M9.946-10.5,6.328,0H3.647L.073-10.5H2.622l2.19,7.31a5.235,5.235,0,0,1,.212,1.047h.044A5.92,5.92,0,0,1,5.3-3.223L7.471-10.5Zm2.2,1.816a1.352,1.352,0,0,1-.959-.348,1.121,1.121,0,0,1-.374-.853,1.081,1.081,0,0,1,.374-.85,1.4,1.4,0,0,1,.959-.33,1.393,1.393,0,0,1,.963.33,1.086,1.086,0,0,1,.37.85,1.116,1.116,0,0,1-.37.864A1.375,1.375,0,0,1,12.151-8.687ZM13.293,0H10.979V-7.5h2.314Z" transform="translate(853.927 64.066)" fill="#4d4d4d"/>
    <g id="_arrow_right" data-name=" arrow_right" transform="translate(599 -3385)">
      <path id="Icon" d="M280,3446.58v-5.17a1,1,0,0,1,1.71-.71l2.59,2.59a1,1,0,0,1,0,1.41l-2.59,2.59A1,1,0,0,1,280,3446.58Z" fill="#4d4d4d"/>
    </g>
  </g>
</svg>
