<?xml version="1.0" encoding="iso-8859-1"?>
<!-- Generator: Adobe Illustrator 19.0.0, SVG Export Plug-In . SVG Version: 6.00 Build 0)  -->
<svg version="1.1" id="Capa_1" xmlns="http://www.w3.org/2000/svg" xmlns:xlink="http://www.w3.org/1999/xlink" x="0px" y="0px"
	 viewBox="0 0 512 512" style="enable-background:new 0 0 512 512;" xml:space="preserve">
<g>
	<g>
		<g>
			<path d="M496,64h-48c-4.253-0.025-8.34,1.645-11.36,4.64L409.44,96H384V80c0-26.51-21.49-48-48-48H48C21.49,32,0,53.49,0,80v256
				c0,26.51,21.49,48,48,48h64v-32H48c-8.837,0-16-7.163-16-16V80c0-8.837,7.163-16,16-16h288c8.837,0,16,7.163,16,16v80h32v-32h32
				c4.253,0.025,8.341-1.645,11.36-4.64L454.56,96H480v240h32V80C512,71.163,504.837,64,496,64z"/>
			<path d="M304,192c-79.529,0-144,64.471-144,144s64.471,144,144,144s144-64.471,144-144S383.529,192,304,192z M304,448
				c-61.856,0-112-50.144-112-112s50.144-112,112-112s112,50.144,112,112S365.856,448,304,448z"/>
			<polygon points="320,272 288,272 288,320 240,320 240,352 288,352 288,400 320,400 320,352 368,352 368,320 320,320 			"/>
		</g>
	</g>
</g>
<g>
</g>
<g>
</g>
<g>
</g>
<g>
</g>
<g>
</g>
<g>
</g>
<g>
</g>
<g>
</g>
<g>
</g>
<g>
</g>
<g>
</g>
<g>
</g>
<g>
</g>
<g>
</g>
<g>
</g>
</svg>
